<?xml version="1.0" encoding="UTF-8"?>
<svg width="34px" height="38px" viewBox="0 0 34 38" version="1.1" xmlns="http://www.w3.org/2000/svg" xmlns:xlink="http://www.w3.org/1999/xlink">
    <!-- Generator: Sketch 46.2 (44496) - http://www.bohemiancoding.com/sketch -->
    <title>Group 6</title>
    <desc>Created with Sketch.</desc>
    <defs>
        <rect id="path-1" x="0" y="0" width="40" height="40"></rect>
        <polygon id="path-2" points="0.00310105743 0.0475443627 0.00310105743 37.0576362 33.5947935 37.0576362 33.5947935 0.0475443627"></polygon>
    </defs>
    <g id="客服系统web2" stroke="none" stroke-width="1" fill="none" fill-rule="evenodd">
        <g id="1客服系统首页ok" transform="translate(-432.000000, -509.000000)">
            <g id="自助服务" transform="translate(0.000000, 400.000000)">
                <g id="找回密码" transform="translate(409.000000, 88.000000)">
                    <g id="账号安全">
                        <g id="Group-6" transform="translate(20.000000, 20.000000)">
                            <g id="Rectangle-21" opacity="0">
                                <use fill="#D8D8D8" fill-rule="evenodd" xlink:href="#path-1"></use>
                                <rect stroke="#979797" stroke-width="1" x="0.5" y="0.5" width="39" height="39"></rect>
                            </g>
                            <g id="账号安全" transform="translate(3.000000, 1.000000)">
                                <g id="Group-3">
                                    <mask id="mask-3" fill="white">
                                        <use xlink:href="#path-2"></use>
                                    </mask>
                                    <g id="Clip-2"></g>
                                    <path d="M27.8021169,37.0576362 L5.79691002,37.0576362 C2.60075349,37.0576362 0,34.5602513 0,31.4963032 L0,17.4176059 C0,14.3537095 2.59651538,11.860511 5.78864053,11.8562729 L6.23100637,11.8480034 L6.28067497,10.549849 C6.2723538,7.72985079 7.30200824,5.10847527 9.18750284,3.17331206 C11.1349152,1.16816833 13.8636907,0.0599537769 16.869649,0.0476529158 C17.891034,0.043414804 18.8875588,0.163322358 19.8344667,0.398951038 C24.5603231,1.59394352 27.6325407,5.54675805 27.6531111,10.4713406 L27.6365721,11.8522415 L27.7978788,11.8522415 C30.9940353,11.8522415 33.5947888,14.3496781 33.5947888,17.4135745 L33.5947888,31.4922718 C33.5988202,34.5602513 30.9982734,37.0576362 27.8021169,37.0576362 Z M6.08160479,14.0281124 C3.82863154,14.0281124 1.99467434,15.7894711 1.99467434,17.9499454 L1.87515598,31.0406279 C1.87515598,33.2050319 3.70911319,34.9622593 5.96208643,34.9622593 L27.4122619,34.9622593 C29.6652351,34.9622593 31.4989908,33.2009007 31.4989908,31.0406279 L31.4989908,17.9216315 C31.4989908,15.7572274 29.6652351,14 27.4122619,14 L25.614478,14 L25.679066,13.1939093 L25.699319,10.5618925 C25.679066,6.46292111 23.1438602,3.17815172 19.2425322,2.19477139 C18.4523617,1.9971784 17.6181586,1.89641705 16.7596719,1.90054827 C14.2648715,1.91253887 12.007767,2.82332065 10.4036464,4.46779614 C8.83574955,6.07604794 8.09683165,8.90147605 8.10882225,11.2754637 L8,14 L6.08160479,14.0281124 Z" id="Fill-1" fill="#00CC77" mask="url(#mask-3)"></path>
                                </g>
                                <polygon id="Fill-4" fill="#00CC77" points="7 13.9661745 7.00224168 12 27 12.0337595 26.9979668 14"></polygon>
                                <path d="M15,22.0000978 C15,23.1046697 15.8953442,24 16.9999064,24 C18.1044685,24 19,23.1046697 19,22.0000978 C19,20.895526 18.1044685,20 16.9999064,20 C15.8953442,20 15,20.895526 15,22.0000978 Z" id="Fill-5" fill="#38CB90"></path>
                                <path d="M16.9999678,21.7367978 L16.9999678,27.2632022 L16.9999678,21.7367978 Z M16.9999678,28 C16.4484681,28 16,27.6711918 16,27.2632022 L16,21.7367978 C16,21.3288082 16.4484681,21 16.9999678,21 C17.5517252,21 18,21.3288082 18,21.7367978 L18,27.2632022 C18,27.6672798 17.5517252,28 16.9999678,28 Z" id="Fill-6" fill="#00CC77"></path>
                            </g>
                        </g>
                    </g>
                </g>
            </g>
        </g>
    </g>
</svg>