<?xml version="1.0" encoding="UTF-8"?>
<svg width="44px" height="44px" viewBox="0 0 44 44" version="1.1" xmlns="http://www.w3.org/2000/svg" xmlns:xlink="http://www.w3.org/1999/xlink">
    <title>画板</title>
    <g id="画板" stroke="none" stroke-width="1" fill="none" fill-rule="evenodd">
        <g id="未成年人" transform="translate(-18.000000, -18.000000)">
            <g id="Group-2" transform="translate(20.000000, 23.000000)">
                <path d="M20,-0.655172414 C14.9918814,-0.655172414 10.4573507,1.37503856 7.15245272,4.67845689 C4.03001551,7.79949617 2.00522715,12.0579209 1.72093705,16.8130399 C1.07541812,17.0120313 0.502029058,17.3756809 0.0500953026,17.8553561 C-0.600879935,18.5462908 -1,19.4775606 -1,20.5021552 C-1,21.5677604 -0.56833358,22.5324525 0.129477134,23.2307645 C0.827547668,23.9293365 1.79194017,24.3613506 3.18192715,24.3478196 C4.49596496,27.6112064 6.718031,30.4218975 9.53206935,32.4446629 C12.4903326,34.571099 16.101824,35.8275862 20,35.8275862 C23.8982651,35.8275862 27.5098313,34.5710409 30.4679975,32.4445031 C33.2816773,30.4218324 35.5033423,27.6113471 37.1428571,24.3613506 C38.2080598,24.3613506 39.1724523,23.9293365 39.8705229,23.2307645 C40.5683336,22.5324525 41,21.5677604 41,20.5021552 C41,19.4555842 40.5841653,18.5049835 39.903522,17.7897945 C39.4236259,17.2855417 38.811502,16.8996365 38.1250004,16.6829862 C37.9175218,11.9950906 35.9330685,7.76871552 32.8291912,4.66260842 C29.5459148,1.3769734 25.0100938,-0.655172414 20,-0.655172414 Z" id="Combined-Shape" stroke="#00CC77" stroke-width="2" stroke-linecap="round" stroke-linejoin="round"></path>
                <path d="M12.3079937,13.4482759 C13.487442,13.4482759 14.4435737,14.4131794 14.4435737,15.6034483 C14.4435737,16.7937171 13.487442,17.7586207 12.3079937,17.7586207 C11.1285455,17.7586207 10.1724138,16.7937171 10.1724138,15.6034483 C10.1724138,14.4131794 11.1285455,13.4482759 12.3079937,13.4482759 Z M26.8299373,13.4482759 C28.0093855,13.4482759 28.9655172,14.4131794 28.9655172,15.6034483 C28.9655172,16.7937171 28.0093855,17.7586207 26.8299373,17.7586207 C25.6504891,17.7586207 24.6943574,16.7937171 24.6943574,15.6034483 C24.6943574,14.4131794 25.6504891,13.4482759 26.8299373,13.4482759 Z" id="Combined-Shape" fill="#00CC77"></path>
                <path d="M12.9310345,24.4827586 C14.7913793,26.7816092 17.1764368,27.9310345 20.0862069,27.9310345 C22.995977,27.9310345 25.3810345,26.7816092 27.2413793,24.4827586" id="Path-3" stroke="#00CC77" stroke-width="2" stroke-linecap="round"></path>
                <path d="M23.6206897,-6.27237725e-13 C29.137931,4.62903746 21.9827586,13.2758621 16.0344828,7.36676379" id="Path-7" stroke="#00CC77" stroke-width="2" stroke-linecap="round"></path>
            </g>
        </g>
    </g>
</svg>