<?xml version="1.0" encoding="UTF-8"?>
<svg width="40px" height="40px" viewBox="0 0 40 40" version="1.1" xmlns="http://www.w3.org/2000/svg" xmlns:xlink="http://www.w3.org/1999/xlink">
    <!-- Generator: Sketch 46.2 (44496) - http://www.bohemiancoding.com/sketch -->
    <title>其他</title>
    <desc>Created with Sketch.</desc>
    <defs>
        <rect id="path-1" x="0" y="0" width="40" height="40"></rect>
    </defs>
    <g id="客服系统web2" stroke="none" stroke-width="1" fill="none" fill-rule="evenodd">
        <g id="1客服系统首页ok" transform="translate(-1449.000000, -658.000000)">
            <g id="自助服务" transform="translate(0.000000, 400.000000)">
                <g id="更多" transform="translate(1429.000000, 238.000000)">
                    <g id="其他" transform="translate(20.000000, 20.000000)">
                        <g id="Rectangle-21" opacity="0">
                            <use fill="#D8D8D8" fill-rule="evenodd" xlink:href="#path-1"></use>
                            <rect stroke="#979797" stroke-width="1" x="0.5" y="0.5" width="39" height="39"></rect>
                        </g>
                        <circle id="Oval-13" fill="#00CC77" cx="12" cy="20" r="2"></circle>
                        <circle id="Oval-13" fill="#00CC77" cx="20" cy="20" r="2"></circle>
                        <circle id="Oval-13" fill="#00CC77" cx="28" cy="20" r="2"></circle>
                        <path d="M20,40 C8.954305,40 0,31.045695 0,20 C0,8.954305 8.954305,0 20,0 C31.045695,0 40,8.954305 40,20 C40,31.045695 31.045695,40 20,40 Z M20,38 C29.9411255,38 38,29.9411255 38,20 C38,10.0588745 29.9411255,2 20,2 C10.0588745,2 2,10.0588745 2,20 C2,29.9411255 10.0588745,38 20,38 Z" id="Combined-Shape" fill="#00CC77"></path>
                    </g>
                </g>
            </g>
        </g>
    </g>
</svg>