<?xml version="1.0" encoding="UTF-8"?>
<svg width="32px" height="40px" viewBox="0 0 32 40" version="1.1" xmlns="http://www.w3.org/2000/svg" xmlns:xlink="http://www.w3.org/1999/xlink">
    <!-- Generator: Sketch 46.2 (44496) - http://www.bohemiancoding.com/sketch -->
    <title>Group 7</title>
    <desc>Created with Sketch.</desc>
    <defs>
        <rect id="path-1" x="0" y="5" width="40" height="40"></rect>
        <polygon id="path-2" points="0 0 7.68752788e-19 45 33 45 33 0"></polygon>
    </defs>
    <g id="客服系统web2" stroke="none" stroke-width="1" fill="none" fill-rule="evenodd">
        <g id="1客服系统首页ok" transform="translate(-637.000000, -508.000000)">
            <g id="自助服务" transform="translate(0.000000, 400.000000)">
                <g id="清空绑定手机" transform="translate(613.000000, 88.000000)">
                    <g id="Group-7" transform="translate(20.000000, 15.000000)">
                        <g id="Rectangle-21" opacity="0">
                            <use fill="#D8D8D8" fill-rule="evenodd" xlink:href="#path-1"></use>
                            <rect stroke="#979797" stroke-width="1" x="0.5" y="5.5" width="39" height="39"></rect>
                        </g>
                        <g id="解除绑定" transform="translate(11.000000, 12.000000)" fill="#00CC77">
                            <path d="M1.27026086,6.79374423 L4.18374782,9.74348904 L5.720431,8.24448606 L2.77816975,5.27535603 C2.02579609,4.70664196 2.21460986,3.5661849 2.77816975,2.80688983 C3.34160958,2.04763515 4.4718509,2.04763515 5.22738613,2.80688983 L8.24012238,5.65647764 L9.67755627,4.25747013 L6.72889184,1.28187835 C5.22426458,-0.427292783 2.77488812,-0.427292783 1.27026086,1.28187835 C-0.423420288,2.80357819 -0.423420288,5.27204438 1.27026086,6.79374423 Z M13.951719,8.38014226 L12.4468916,9.89857084 L15.2035807,12.8710529 C15.9559944,13.439767 15.9559944,14.5801837 15.2035807,15.3426288 C14.6400208,16.1019239 13.5099396,16.1019239 12.7544044,15.3426288 L9.80886148,12.3703083 L8.30091257,13.8887369 L11.2462954,16.8611786 C12.7511227,18.3796071 15.2002991,18.3796071 16.7050864,16.8611786 C18.3987676,15.3426288 18.3987676,12.8710529 16.8939402,11.3524628 L13.951719,8.38014226 Z M17.0860756,1.09444745 C16.6827553,0.687438475 15.7669805,0.713325828 15.3924345,1.09444745 L1.27026086,15.3426288 C0.892393199,15.9113429 0.892393199,16.673788 1.27026086,17.0517596 C1.74081456,17.5267784 2.40034211,17.6204736 2.96390199,17.0517596 L17.0860756,2.80042809 C17.4639033,2.23171403 17.4639033,1.47258051 17.0860756,1.09444745 Z" id="Fill-1"></path>
                        </g>
                        <g id="手机" transform="translate(4.000000, 0.000000)">
                            <mask id="mask-3" fill="white">
                                <use xlink:href="#path-2"></use>
                            </mask>
                            <g id="Clip-2"></g>
                            <path d="M22.3264592,38.0148841 C22.3275116,38.5564558 21.9024006,39.0049182 21.3571508,39.0375477 L11.6428525,39.0375477 C11.2114271,38.9047228 10.9173666,38.50883 10.9173666,38.060807 C10.9173666,37.612784 11.2114271,37.2171109 11.6428525,37.0840663 L21.3467377,37.0840663 C21.8621328,37.107632 22.2805971,37.5052826 22.3264592,38.0148841 Z M31.9998744,8.91712514 L31.9998744,41.0829298 C32.0169896,43.2254861 30.2825922,44.977478 28.1224191,45 L3.87758413,45 C1.7171895,44.977478 -0.0172079271,43.2254861 0.000128846598,41.0829298 L0.000128846597,8.91712514 C-0.0172079271,6.77456882 1.7171895,5.022522 3.87758413,5 L28.1224191,5 C30.2825922,5.022522 32.0169896,6.77456882 31.9998744,8.91712514 Z M30.061036,8.85667901 C30.0669072,7.84044706 29.2003455,7.01080709 28.1224191,7 L3.87758413,7 C2.79943621,7.01080709 1.93309603,7.84044706 1.93874571,8.85667901 L1.93874571,41.1797844 C1.93309603,42.1959641 2.79943621,43.0258129 3.87758413,43.0364112 L28.1224191,43.0364112 C29.2003455,43.0258129 30.0669072,42.1959641 30.061036,41.1797844 L30.061036,8.85667901 Z" id="Fill-1" fill="#00CC77" mask="url(#mask-3)"></path>
                        </g>
                    </g>
                </g>
            </g>
        </g>
    </g>
</svg>