<?xml version="1.0" encoding="UTF-8"?>
<svg width="40px" height="35px" viewBox="0 0 40 35" version="1.1" xmlns="http://www.w3.org/2000/svg" xmlns:xlink="http://www.w3.org/1999/xlink">
    <!-- Generator: Sketch 46.2 (44496) - http://www.bohemiancoding.com/sketch -->
    <title>钱包首页_提现</title>
    <desc>Created with Sketch.</desc>
    <defs>
        <rect id="path-1" x="0" y="0" width="40" height="40"></rect>
    </defs>
    <g id="客服系统web2" stroke="none" stroke-width="1" fill="none" fill-rule="evenodd">
        <g id="1客服系统首页ok" transform="translate(-1041.000000, -511.000000)">
            <g id="自助服务" transform="translate(0.000000, 400.000000)">
                <g id="充值未到账" transform="translate(1021.000000, 88.000000)">
                    <g id="钱包首页_提现" transform="translate(20.000000, 20.000000)">
                        <path d="M35.000141,21 C35.5500014,21 36,20.549945 36,20.0000846 C36,19.4499986 35.5500014,19 35.000141,19 C34.450055,19 34,19.4499986 34,20.0000846 C34,20.549945 34.450055,21 35.000141,21 Z" id="Fill-1" fill="#00CC77"></path>
                        <path d="M38.0416061,15.5577618 L37.0625995,15.5577618 L37.0625995,6.8887929 C37.0625995,4.74993791 35.3000178,3 33.1459749,3 L3.91640711,3 C1.76236417,3 0,4.74993791 0,6.8887929 L0,19.5277613 L1.95823074,19.5277613 L1.95823074,6.8887929 C1.95823074,5.81674671 2.83674835,4.94442345 3.91640711,4.94442345 L33.1459749,4.94442345 C34.2258512,4.94442345 35.1043688,5.81674671 35.1043688,6.8887929 L35.1043688,15.5856225 L27.2712827,15.5856225 C26.1941796,15.5856225 25.3131063,16.4604835 25.3131063,17.529992 L25.3131063,23.3356175 C25.3131063,24.404964 26.1941796,25.280041 27.2712827,25.280041 L35.1043688,25.280041 L35.1043688,34.1109371 C35.1043688,35.1832533 34.2258512,36.0553606 33.1459749,36.0553606 L3.91640711,36.0553606 C2.83674835,36.0553606 1.95823074,35.1832533 1.95823074,34.1109371 L1.95823074,21.4721847 L10.3123589,21.4721847 L7.21644897,24.5985317 C6.83727694,24.9811315 6.84260591,25.5974163 7.22792255,25.9734829 C7.41101049,26.1523642 7.65761097,26.2527386 7.91443436,26.2525227 C8.17696735,26.2529546 8.42867928,26.1481527 8.61241975,25.9618742 L14.0564991,20.4646611 L8.65869472,14.1967409 C8.30698317,13.7884401 7.68925849,13.7409796 7.2780583,14.0894013 C6.86702126,14.438633 6.81862557,15.0520022 7.17011962,15.460303 L10.6734233,19.5277613 L0,19.5277613 L0,34.1109371 C0,36.2498461 1.76236417,38 3.91640711,38 L33.1459749,38 C35.3000178,38 37.0625995,36.2498461 37.0625995,34.1109371 L37.0625995,25.280041 L38.0416061,25.280041 C39.0764581,25.280041 39.9301253,24.4720243 39.9953779,23.4600732 C39.9994019,23.3537594 40,23.3446885 40,23.3356175 L40,17.5021852 C39.9998369,16.4328387 39.1187092,15.5577618 38.0416061,15.5577618 Z M27.2712827,23.3356175 L38.0416061,23.3356175 L38.0416061,17.529992 L27.2712827,17.529992 L27.2712827,23.3356175 Z" id="Fill-2" fill="#00CC77"></path>
                        <g id="Rectangle-21" opacity="0">
                            <use fill="#D8D8D8" fill-rule="evenodd" xlink:href="#path-1"></use>
                            <rect stroke="#979797" stroke-width="1" x="0.5" y="0.5" width="39" height="39"></rect>
                        </g>
                    </g>
                </g>
            </g>
        </g>
    </g>
</svg>