<?xml version="1.0" encoding="UTF-8"?>
<svg width="38px" height="38px" viewBox="0 0 38 38" version="1.1" xmlns="http://www.w3.org/2000/svg" xmlns:xlink="http://www.w3.org/1999/xlink">
    <!-- Generator: Sketch 46.2 (44496) - http://www.bohemiancoding.com/sketch -->
    <title>礼物</title>
    <desc>Created with Sketch.</desc>
    <defs>
        <rect id="path-1" x="0" y="0" width="40" height="40"></rect>
    </defs>
    <g id="客服系统web2" stroke="none" stroke-width="1" fill="none" fill-rule="evenodd">
        <g id="1客服系统首页ok" transform="translate(-1246.000000, -509.000000)">
            <g id="自助服务" transform="translate(0.000000, 400.000000)">
                <g id="送／收礼异常" transform="translate(1225.000000, 88.000000)">
                    <g id="礼物" transform="translate(20.000000, 20.000000)">
                        <g id="Rectangle-14" opacity="0">
                            <use fill="#D8D8D8" fill-rule="evenodd" xlink:href="#path-1"></use>
                            <rect stroke="#979797" stroke-width="1" x="0.5" y="0.5" width="39" height="39"></rect>
                        </g>
                        <path d="M30.0198747,10.3002781 C15.6497845,10.2788204 8.93776942,10.2575724 9.8838296,10.2365342 C5.95917863,2.93948626 16.1537259,-2.3192408 19.9525164,3.47202528 C19.9959624,3.45015519 20.0409336,3.4290508 20.0845764,3.40718071 C20.9279101,1.64661476 24.4470819,0.44160646 27.039423,1.41049439 C30.301806,2.62875874 32.3039119,6.69166581 30.0198747,10.3002781 Z M19,11 L21,11 L21,38 L19,38 L19,11 Z M18.8631345,10 L12.2871287,10 C11.9007256,9.29540279 11.1664512,8.86547292 10.8924366,7.98625636 C10.0768064,5.35010264 12.3759836,2.62201538 15.2768187,3.04328681 C19.188459,3.61048236 18.9556403,5.88239245 18.8631345,10 Z M29.0296909,7.68344399 C28.7898851,8.72972409 28.1073382,9.30178537 27.5118686,10 L20.9769026,10 C20.8924239,5.90094471 20.7120425,3.6408293 24.5409437,3.04879185 C27.3402636,2.6156578 29.6115301,5.14927911 29.0296909,7.68344399 Z" id="Fill-1" fill="#00CC77"></path>
                        <path d="M35.5234834,20 L4.47916003,20 C2.56037412,20 1,18.3622989 1,16.3386462 L1,13.6643563 C1,11.6407036 2.55778256,10 4.47916003,10 L35.5234834,10 C37.4422693,10 39,11.6407036 39,13.6643563 L39,16.3414303 C38.9974084,18.3622989 37.4396259,20 35.5234834,20 Z M37.259202,13.6643563 C37.259202,12.6525299 36.4815287,11.833461 35.5234834,11.833461 L4.47916003,11.833461 C3.51847129,11.833461 2.74079804,12.6525299 2.74079804,13.6643563 L2.74079804,16.3414303 C2.74079804,17.3504725 3.51847129,18.1693231 4.47916003,18.1693231 L35.5234834,18.1693231 C36.4815287,18.1693231 37.259202,17.3504725 37.259202,16.3414303 L37.259202,13.6643563 Z" id="Fill-1" fill="#00CC77"></path>
                        <path d="M33.5234834,38.5789474 L6.47916003,38.5789474 C4.56037412,38.5789474 3,37.0102021 3,35.0717558 L3,19 L3,18 L37,18 L37,19 L37,35.0744227 C36.9974084,37.0102021 35.4396259,38.5789474 33.5234834,38.5789474 Z M35.259202,21.5100676 C35.259202,20.5408445 34.4815287,19.7562626 33.5234834,19.7562626 L6.47916003,19.7562626 C5.51847129,19.7562626 4.74079804,20.5408445 4.74079804,21.5100676 L4.74079804,35.0744227 C4.74079804,36.0409789 5.51847129,36.8253516 6.47916003,36.8253516 L33.5234834,36.8253516 C34.4815287,36.8253516 35.259202,36.0409789 35.259202,35.0744227 L35.259202,21.5100676 Z" id="Fill-1" fill="#00CC77"></path>
                    </g>
                </g>
            </g>
        </g>
    </g>
</svg>