<?xml version="1.0" encoding="UTF-8"?>
<svg width="36px" height="40px" viewBox="0 0 36 40" version="1.1" xmlns="http://www.w3.org/2000/svg" xmlns:xlink="http://www.w3.org/1999/xlink">
    <!-- Generator: Sketch 46.2 (44496) - http://www.bohemiancoding.com/sketch -->
    <title>收益</title>
    <desc>Created with Sketch.</desc>
    <defs>
        <rect id="path-1" x="0" y="0" width="40" height="40"></rect>
        <polygon id="path-2" points="38 40 38 0 2 0 2 40 38 40"></polygon>
    </defs>
    <g id="客服系统web2" stroke="none" stroke-width="1" fill="none" fill-rule="evenodd">
        <g id="1客服系统首页ok" transform="translate(-431.000000, -658.000000)">
            <g id="自助服务" transform="translate(0.000000, 400.000000)">
                <g id="收益到账异常" transform="translate(409.000000, 238.000000)">
                    <g id="收益">
                        <g transform="translate(20.000000, 20.000000)">
                            <g id="Rectangle-21" opacity="0">
                                <use fill="#D8D8D8" fill-rule="evenodd" xlink:href="#path-1"></use>
                                <rect stroke="#979797" stroke-width="1" x="0.5" y="0.5" width="39" height="39"></rect>
                            </g>
                            <mask id="mask-3" fill="white">
                                <use xlink:href="#path-2"></use>
                            </mask>
                            <g id="Clip-2"></g>
                            <path d="M26.333416,28.0630998 L20.7694486,28.0630998 L20.7694486,26.0185565 L26.333416,26.0185565 C26.8433475,26.0185565 27.2564959,25.5959098 27.2564959,25.0747317 C27.2564959,24.5535536 26.8433475,24.130907 26.333416,24.130907 L22.0673866,24.130907 L26.3508581,17.9907923 C26.605677,17.5392647 26.4545122,16.9623062 26.0129396,16.7014769 C25.5715432,16.4408879 25.0069951,16.5956802 24.7518825,17.0469676 L19.84631,24.0793296 L14.9405024,17.0472077 C14.6856248,16.5956802 14.1210767,16.4408879 13.6796803,16.7014769 C13.2380489,16.9623062 13.0868842,17.5392647 13.3417618,17.9907923 L17.6251746,24.1311471 L13.358969,24.1311471 C12.8492137,24.1311471 12.4358303,24.5535536 12.4358303,25.0747317 C12.4358303,25.59615 12.8492137,26.0185565 13.358969,26.0185565 L18.9231713,26.0185565 L18.9231713,28.06334 L13.358969,28.06334 C12.8492137,28.06334 12.4358303,28.4859866 12.4358303,29.0071047 C12.4358303,29.5282828 12.8492137,29.9509294 13.358969,29.9509294 L18.9231713,29.9509294 L18.9231713,33.8310044 C18.9231713,34.3521825 19.3365546,34.7748291 19.84631,34.7748291 C20.3560065,34.7748291 20.7694486,34.3521825 20.7694486,33.8310044 L20.7694486,29.9509294 L26.333416,29.9509294 C26.8433475,29.9509294 27.2564959,29.5282828 27.2564959,29.0071047 C27.2567308,28.4859866 26.8433475,28.06334 26.3336509,28.06334 L26.333416,28.0630998 Z M26.2944209,11.3639045 C26.6249984,10.8950844 26.8291354,10.4287861 26.8291354,10.4287861 L29.7522414,2.45920415 C29.7522414,1.41684792 28.9256509,0.571554663 27.906199,0.571554663 C27.906199,0.571554663 27.8841762,0.548377848 27.7123393,0.548377848 C27.6263034,0.548377848 27.5029168,0.554202074 27.3260294,0.571554663 C26.794956,0.624092779 25.5974421,2.69349413 24.1882153,2.69349413 C22.7787537,2.69349413 21.7416248,1.41054335 21.05046,0.571554663 C20.7224078,0.173766067 20.2697945,0 19.7976835,0 C19.2745971,0 18.7277259,0.213394818 18.3003654,0.571554663 C17.4873409,1.25316917 16.5720131,2.69349413 15.1625514,2.69349413 C13.7533246,2.69349413 12.5236868,0.637242319 12.0247374,0.571554663 C11.8584209,0.54975885 11.7384405,0.542493579 11.6524046,0.542493579 C11.4806264,0.542493579 11.4445677,0.571554663 11.4445677,0.571554663 C10.4248809,0.571554663 9.37606525,1.41054335 9.5983491,2.45920415 C9.82063295,3.50786496 12.7264731,10.4287861 12.7264731,10.4287861 C12.7264731,10.4287861 12.97354,10.9921748 13.3637847,11.5035058 C6.70689723,14.3036973 2,21.0302575 2,27.7135862 C2,36.4586307 10.0590082,40 20,40 C29.9412268,40 38,36.4586307 38,27.7135862 C38,20.9164749 33.131367,14.0748113 26.2944209,11.3639045 Z M14.4140098,9.66257019 C13.3131028,7.03986742 12.0770636,3.98184883 11.5953214,2.64257719 C12.3452137,3.4067516 13.5555889,4.58114362 15.1625514,4.58114362 C16.9927374,4.58114362 18.1888418,3.33806176 18.9805481,2.51546497 C19.1672431,2.32128409 19.3436607,2.13809119 19.4709821,2.03139378 C19.560248,1.95633932 19.6584405,1.91502935 19.7288548,1.89767676 C20.5368287,2.87692721 21.9967374,4.58114362 24.1882153,4.58114362 C25.772509,4.58114362 26.9603915,3.43443168 27.6997129,2.67992429 L25.1260359,9.69655485 C25.0427602,9.87314297 24.7188777,10.3893975 24.4749821,10.7550628 C23.0444372,10.3624379 21.5448287,10.1494634 20,10.1494634 C18.2925546,10.1494634 16.6406069,10.4095721 15.0753997,10.8847569 C14.8175269,10.4374924 14.4929396,9.83609609 14.4137749,9.66257019 L14.4140098,9.66257019 Z M34.9998434,32.3559743 C34.2779054,33.5941325 33.196261,34.6563632 31.7852137,35.513425 C28.9857879,37.2138587 24.9106232,38.1124106 20,38.1124106 C15.0896117,38.1124106 11.014447,37.2136185 8.21502121,35.513425 C6.8039739,34.6563632 5.72232953,33.5941325 5.00015661,32.3559743 C4.23440783,31.0430017 3.84627732,29.4811486 3.84627732,27.7135862 C3.84627732,25.8342227 4.26676672,23.9315623 5.09629364,22.0585034 C5.90902447,20.2233921 7.11064927,18.4720415 8.57132137,16.9932286 C10.0864927,15.4591156 11.8233605,14.2479169 13.7338271,13.3931968 C15.7454812,12.4930237 17.8536835,12.0368728 20,12.0368728 C22.1463165,12.0368728 24.2547537,12.4930237 26.2664078,13.3931968 C28.1766395,14.2479169 29.9137423,15.4591156 31.4289135,16.9932286 C32.8895269,18.4720415 34.0911517,20.2233921 34.9037064,22.0585034 C35.7334682,23.9315623 36.1539576,25.8342227 36.1539576,27.7135862 C36.1539576,29.4811486 35.7658271,31.0430017 34.9998434,32.3559743 Z" id="Fill-1" fill="#00CC77" mask="url(#mask-3)"></path>
                        </g>
                    </g>
                </g>
            </g>
        </g>
    </g>
</svg>