<?xml version="1.0" encoding="UTF-8"?>
<svg width="40px" height="40px" viewBox="0 0 40 40" version="1.1" xmlns="http://www.w3.org/2000/svg" xmlns:xlink="http://www.w3.org/1999/xlink">
    <!-- Generator: Sketch 46.2 (44496) - http://www.bohemiancoding.com/sketch -->
    <title>资产</title>
    <desc>Created with Sketch.</desc>
    <defs>
        <rect id="path-1" x="0" y="0" width="40" height="40"></rect>
    </defs>
    <g id="客服系统web2" stroke="none" stroke-width="1" fill="none" fill-rule="evenodd">
        <g id="1客服系统首页ok" transform="translate(-633.000000, -658.000000)">
            <g id="自助服务" transform="translate(0.000000, 400.000000)">
                <g id="直播时长丢失" transform="translate(613.000000, 238.000000)">
                    <g id="资产" transform="translate(20.000000, 20.000000)">
                        <path d="M19.9970805,0 C14.6575961,0 9.63457089,2.08284676 5.85788256,5.86085711 C2.08135948,9.63760053 0,14.6588631 0,19.9998898 C0,25.3424039 2.08157982,30.3636664 5.85788256,34.1404098 C9.63479123,37.9186405 14.6575961,40 19.9970805,40 C25.3424039,40 30.3637215,37.9186405 34.1406302,34.1404098 C37.9201278,30.3636664 40,25.3424039 40,19.9998898 C40,14.6588631 37.9201278,9.63760053 34.1406302,5.86085711 C30.3637215,2.08284676 25.3426242,0 19.9970805,0 Z M32.7277786,32.7273305 C29.3310188,36.1272688 24.807067,38 19.9985269,38 C15.1928763,38 10.6749302,36.1272688 7.27216471,32.7273305 C3.87251535,29.3271656 2,24.8090621 2,19.9998867 C2,15.1909379 3.87251535,10.6727778 7.27216471,7.27266947 C10.6749302,3.87250452 15.1928763,2 19.9985269,2 C24.807067,2 29.3310188,3.87273116 32.7277786,7.27266947 C36.127428,10.6725511 38,15.1907112 38,19.9998867 C38,24.8092888 36.127428,29.3271656 32.7277786,32.7273305 Z M29.258917,22.6005618 L21.4441228,19.176145 L21.4441228,6.2520173 C21.4441228,5.56263942 20.896903,5 20.2200416,5 C19.545981,5 19,5.56263942 19,6.2520173 L19,19.9993666 C19,20.4987194 19.2909529,20.9537881 19.7418168,21.1482746 L28.2967581,24.8982127 C28.4537068,24.9660158 28.6165801,25 28.7762756,25 C29.2502994,25 29.7053643,24.7142464 29.9012001,24.2428741 C30.1665155,23.607915 29.8791174,22.8732065 29.258917,22.6005618 Z M7.66500257,19 L6.33341164,19 C5.59831143,19 5,19.6722963 5,20.4999008 C5,21.3277037 5.59831143,22 6.33341164,22 L7.66500257,22 C8.40004405,22 9,21.3277037 9,20.4999008 C9,19.6722963 8.40004405,19 7.66500257,19 Z M31.000235,20.4998678 C31.000235,21.3268138 31.6002996,22 32.33537,22 L33.6675675,22 C34.4044591,22 35,21.3268138 35,20.4998678 C35,19.6731201 34.4044591,19 33.6675675,19 L32.33537,19 C31.6000646,19 31,19.6731201 31,20.4998678 L31.000235,20.4998678 Z M20.4972564,31 C19.6698914,31 19,31.5971641 19,32.3328043 L19,33.6685475 C19,34.4011902 19.6698914,35 20.4972564,35 C21.3280592,35 22,34.4009551 22,33.6685475 L22,32.3328043 C22,31.5971641 21.3280592,31 20.4972564,31 Z" id="时钟" fill="#00CC77"></path>
                        <g id="Rectangle-21" opacity="0">
                            <use fill="#D8D8D8" fill-rule="evenodd" xlink:href="#path-1"></use>
                            <rect stroke="#979797" stroke-width="1" x="0.5" y="0.5" width="39" height="39"></rect>
                        </g>
                    </g>
                </g>
            </g>
        </g>
    </g>
</svg>