<?xml version="1.0" encoding="UTF-8"?>
<svg width="31px" height="40px" viewBox="0 0 31 40" version="1.1" xmlns="http://www.w3.org/2000/svg" xmlns:xlink="http://www.w3.org/1999/xlink">
    <!-- Generator: Sketch 46.2 (44496) - http://www.bohemiancoding.com/sketch -->
    <title>Group 8</title>
    <desc>Created with Sketch.</desc>
    <defs>
        <rect id="path-1" x="0" y="0" width="40" height="40"></rect>
        <polygon id="path-2" points="0 40 31 40 31 0 0 0"></polygon>
    </defs>
    <g id="客服系统web2" stroke="none" stroke-width="1" fill="none" fill-rule="evenodd">
        <g id="1客服系统首页ok" transform="translate(-842.000000, -658.000000)">
            <g id="自助服务" transform="translate(0.000000, 400.000000)">
                <g id="账号违规解封申请" transform="translate(817.000000, 238.000000)">
                    <g id="Group-8" transform="translate(20.000000, 20.000000)">
                        <g id="Rectangle-23" opacity="0">
                            <use fill="#D8D8D8" fill-rule="evenodd" xlink:href="#path-1"></use>
                            <rect stroke="#979797" stroke-width="1" x="0.5" y="0.5" width="39" height="39"></rect>
                        </g>
                        <rect id="Rectangle-16" fill="#00CC77" x="11" y="26" width="19" height="2" rx="1"></rect>
                        <rect id="Rectangle-16" fill="#00CC77" x="11" y="32" width="19" height="2" rx="1"></rect>
                        <g id="申请结束" transform="translate(5.000000, 0.000000)">
                            <mask id="mask-3" fill="white">
                                <use xlink:href="#path-2"></use>
                            </mask>
                            <g id="Clip-2"></g>
                            <path d="M3.20462759,4.02386611 L10,4.0465142 C10.4971939,1.7441719 13.0144435,0 15.5,0 C17.9854063,0 20.5029563,1.7441719 21,4.0465142 L27.7953586,4.02386664 C27.8665976,4.00821015 27.94129,4 28.018683,4 C29.6826824,4 31,5.33570634 31,7.02298086 L31,36.9770191 C31,38.6642937 29.6826824,40 28.018683,40 L2.98131701,40 C1.31728095,40 0,38.6642937 0,36.9770191 L0,7.02298086 C0,5.33570634 1.31728095,4 2.98131701,4 C3.05870406,4 3.13339196,4.00820996 3.20462759,4.02386611 Z M2.89247954,5.97209184 C2.38289688,6.01452703 2.01071787,6.4207239 2.01071787,6.95274897 L2.01071787,36.9066015 C2.01071787,37.4690882 2.42673605,37.8909254 2.98131701,37.8909254 L28.018683,37.8909254 C28.5732639,37.8909254 28.9892821,37.4690882 28.9892821,36.9066015 L28.9892821,6.95274897 C28.9892821,6.42074755 28.6171362,6.01456313 28.1075884,5.9720975 C28.0742603,5.97511223 28.0403473,5.97665071 28.0059125,5.97665071 L2.99423759,5.97665071 C2.95977447,5.97665071 2.92583399,5.97511031 2.89247954,5.97209184 Z M15.5863797,2 C17.2283251,2 18.4814933,2.93414985 19,4 L12,4 C12.5185524,2.93414985 13.9443886,2 15.5,2 L15.5863797,2 Z" id="Fill-1" fill="#00CC77" mask="url(#mask-3)"></path>
                        </g>
                        <g id="钥匙-(3)" transform="translate(15.000000, 10.000000)" fill="#00CC77">
                            <path d="M8,3.99998535 C7.25818667,3.99998535 6.56376114,4.20214893 5.96821281,4.55406385 L4.3199666,2.90575905 L5.51891484,1.70710378 C5.90944314,1.31657548 5.90944314,0.68342452 5.51891484,0.292896223 C5.12838654,-0.0976320743 4.49523558,-0.0976320743 4.10470729,0.292896223 L2.90575905,1.49155149 L1.70710378,0.292896223 C1.31657548,-0.0976320743 0.68342452,-0.0976320743 0.292896223,0.292896223 C-0.0976320743,0.68342452 -0.0976320743,1.31657548 0.292896223,1.70710378 L1.72913508,3.14334264 C1.72913508,3.14340123 1.72919367,3.14340123 1.72919367,3.14340123 C1.72919367,3.14345982 1.72925227,3.14345982 1.72925227,3.14345982 L4.55400526,5.96827141 C4.20214893,6.56376114 3.99998535,7.25824526 3.99998535,8 C3.99998535,10.2091655 5.7908784,12 8,12 C10.2091655,12 12,10.2091655 12,8 C12,5.7908784 10.2091655,3.99998535 8,3.99998535 Z M8,10.0000293 C6.89541723,10.0000293 6.0000293,9.10458277 6.0000293,8 C6.0000293,6.89541723 6.89541723,6.0000293 8,6.0000293 C9.10458277,6.0000293 10.0000293,6.89541723 10.0000293,8 C10.0000293,9.10458277 9.10458277,10.0000293 8,10.0000293 Z" id="Fill-1" transform="translate(6.000000, 6.000000) scale(-1, -1) rotate(-270.000000) translate(-6.000000, -6.000000) "></path>
                        </g>
                    </g>
                </g>
            </g>
        </g>
    </g>
</svg>